<svg width="16" height="16" viewBox="0 0 16 16" fill="none" xmlns="http://www.w3.org/2000/svg">
<rect width="16" height="16" fill="white"/>
<path fill-rule="evenodd" clip-rule="evenodd" d="M11.264 3.1791L10.2808 3.73187C9.99325 3.57771 9.69079 3.4532 9.37806 3.36026L9.01419 2.26555C8.98866 2.18835 8.93947 2.12116 8.87361 2.07349C8.80774 2.02583 8.72853 2.00012 8.64723 2H7.27226C7.18787 2.00007 7.10582 2.02772 7.03859 2.07873C6.97137 2.12974 6.92266 2.20133 6.89987 2.28258L6.59639 3.36877C6.28402 3.4633 5.98207 3.58937 5.69523 3.74503L4.66323 3.2271C4.59046 3.19064 4.50805 3.17806 4.42772 3.19112C4.34738 3.20418 4.27321 3.24224 4.21574 3.29987L3.24258 4.27226C3.18282 4.33203 3.14427 4.40971 3.13281 4.49345C3.12134 4.57718 3.1376 4.66237 3.1791 4.736L3.73187 5.71923C3.57781 6.00568 3.45316 6.30761 3.36026 6.62194L2.26555 6.98581C2.18835 7.01134 2.12116 7.06052 2.07349 7.12639C2.02583 7.19226 2.00012 7.27147 2 7.35277V8.72852C2.00007 8.8129 2.02772 8.89496 2.07873 8.96218C2.12974 9.0294 2.20133 9.07812 2.28258 9.1009L3.36877 9.40439C3.46323 9.71794 3.58942 10.0191 3.74503 10.3055L3.2271 11.3375C3.19064 11.4103 3.17806 11.4927 3.19112 11.5731C3.20418 11.6534 3.24224 11.7276 3.29987 11.785L4.27226 12.7574C4.33203 12.8172 4.40971 12.8557 4.49345 12.8672C4.57718 12.8787 4.66237 12.8624 4.736 12.8209L5.71923 12.2681C6.00568 12.4222 6.30761 12.5468 6.62194 12.6397L6.98581 13.7345C7.01134 13.8116 7.06052 13.8788 7.12639 13.9265C7.19226 13.9742 7.27147 13.9999 7.35277 14H8.72852C8.8129 13.9999 8.89496 13.9723 8.96218 13.9213C9.0294 13.8703 9.07812 13.7987 9.1009 13.7174L9.40439 12.6312C9.71677 12.5367 10.0187 12.4106 10.3055 12.255L11.3375 12.7729C11.4102 12.8095 11.4926 12.8222 11.5729 12.8092C11.6533 12.7963 11.7275 12.7584 11.785 12.7009L12.7574 11.7277C12.8172 11.668 12.8557 11.5903 12.8672 11.5066C12.8787 11.4228 12.8624 11.3376 12.8209 11.264L12.2681 10.2808C12.4222 9.99432 12.5468 9.69239 12.6397 9.37806L13.7345 9.01419C13.8116 8.98866 13.8788 8.93947 13.9265 8.87361C13.9742 8.80774 13.9999 8.72853 14 8.64723V7.27226C13.9999 7.18787 13.9723 7.10582 13.9213 7.03859C13.8703 6.97137 13.7987 6.92266 13.7174 6.89987L12.6312 6.59639C12.5367 6.284 12.4107 5.98206 12.255 5.69523L12.7729 4.66323C12.8095 4.59053 12.8222 4.50817 12.8092 4.42784C12.7963 4.34751 12.7584 4.2733 12.7009 4.21574L11.7277 3.24335C11.668 3.1836 11.5903 3.14504 11.5066 3.13358C11.4228 3.12212 11.3376 3.1376 11.264 3.1791ZM10.4712 4.51381L11.3879 3.99742L11.9554 4.5649L11.4699 5.53265C11.4407 5.59104 11.4267 5.65587 11.4293 5.72112C11.4319 5.78636 11.4509 5.8499 11.4846 5.90581C11.6898 6.24645 11.8439 6.61652 11.9414 7.00361C11.958 7.06984 11.9918 7.1305 12.0394 7.17945C12.087 7.22839 12.1467 7.26389 12.2124 7.28232L13.2258 7.56568V8.36852L12.1985 8.70916C12.1364 8.7297 12.0806 8.76561 12.0362 8.81353C11.9918 8.86145 11.9603 8.91983 11.9445 8.98323C11.8486 9.37002 11.696 9.74048 11.4916 10.0826C11.4565 10.1411 11.4375 10.2079 11.4366 10.2762C11.4356 10.3444 11.4527 10.4117 11.4862 10.4712L12.0026 11.3879L11.4351 11.9554L10.4674 11.4699C10.409 11.4407 10.3441 11.4267 10.2789 11.4293C10.2136 11.4319 10.1501 11.4509 10.0942 11.4846C9.75355 11.6898 9.38348 11.8439 8.99639 11.9414C8.93016 11.958 8.8695 11.9918 8.82055 12.0394C8.77161 12.087 8.73611 12.1467 8.71768 12.2124L8.43432 13.2258H7.63226L7.29161 12.1985C7.271 12.1363 7.23498 12.0805 7.18691 12.0361C7.13885 11.9917 7.08031 11.9602 7.01677 11.9445C6.62999 11.8486 6.25952 11.696 5.91742 11.4916C5.85887 11.4565 5.79208 11.4375 5.72383 11.4366C5.65557 11.4356 5.58828 11.4527 5.52877 11.4862L4.61213 12.0026L4.04464 11.4351L4.53006 10.4674C4.55928 10.409 4.57326 10.3441 4.57069 10.2789C4.56811 10.2136 4.54908 10.1501 4.51535 10.0942C4.30976 9.7528 4.15583 9.38286 4.05858 8.99639C4.042 8.93016 4.00821 8.8695 3.96062 8.82055C3.91303 8.77161 3.85334 8.73611 3.78761 8.71768L2.77419 8.43432V7.63226L3.80155 7.29161C3.86351 7.27089 3.91922 7.23482 3.96349 7.18676C4.00775 7.13871 4.03914 7.08023 4.05471 7.01677C4.15148 6.62968 4.30477 6.25884 4.50839 5.91742C4.54348 5.85887 4.56246 5.79208 4.56341 5.72383C4.56436 5.65557 4.54725 5.58828 4.51381 5.52877L3.99742 4.61213L4.5649 4.04464L5.53265 4.53006C5.59104 4.55928 5.65587 4.57326 5.72112 4.57069C5.78636 4.56811 5.8499 4.54908 5.90581 4.51535C6.24645 4.31019 6.61652 4.15613 7.00361 4.05858C7.06984 4.042 7.1305 4.00821 7.17945 3.96062C7.22839 3.91303 7.26389 3.85334 7.28232 3.78761L7.56568 2.77419H8.36852L8.70916 3.80155C8.72981 3.86342 8.76577 3.91907 8.81368 3.96333C8.86159 4.00759 8.91991 4.03902 8.98323 4.05471C9.37032 4.15148 9.74116 4.30477 10.0826 4.50839C10.1411 4.54348 10.2079 4.56246 10.2762 4.56341C10.3444 4.56436 10.4117 4.54725 10.4712 4.51381Z" fill="#673BB7"/>
<path d="M8 11V7.41521M8 7.41521C8.22093 7.04657 8.77791 6.27495 9.23837 6.13766C9.69884 6.00037 10.6047 5.99147 11 6.00418C10.9302 6.51266 10.686 7.5792 10.2674 7.77751C9.74419 8.02539 8.61047 8.69277 8 7.41521Z" stroke="#673BB7" stroke-width="0.5"/>
<path d="M6.58929 6.06627C7.175 6.1863 7.77381 6.93867 8 7.29986V8C7.47619 7.96666 6.33929 7.8533 5.98214 7.6666C5.625 7.47989 5.17857 6.52192 5 6.06627C5.28571 6.01626 6.00357 5.94625 6.58929 6.06627Z" stroke="#673BB7" stroke-width="0.5"/>
</svg>
