<svg width="656" height="656" viewBox="0 0 656 656" fill="none" xmlns="http://www.w3.org/2000/svg">
<mask id="path-1-inside-1_101_194" fill="white">
<path fill-rule="evenodd" clip-rule="evenodd" d="M466.285 123.754L424.629 147.174C412.447 140.642 399.633 135.367 386.384 131.43L370.968 85.0504C369.886 81.7799 367.802 78.9331 365.012 76.9137C362.221 74.8943 358.866 73.8049 355.421 73.8H297.168C293.593 73.8031 290.117 74.9744 287.268 77.1356C284.42 79.2968 282.357 82.3295 281.391 85.772L268.534 131.79C255.299 135.795 242.507 141.136 230.354 147.731L186.632 125.788C183.549 124.244 180.058 123.71 176.654 124.264C173.251 124.817 170.108 126.429 167.674 128.871L126.444 170.068C123.912 172.6 122.279 175.891 121.793 179.439C121.308 182.987 121.996 186.596 123.754 189.715L147.174 231.371C140.646 243.507 135.366 256.299 131.43 269.616L85.0504 285.032C81.78 286.114 78.9332 288.198 76.9138 290.988C74.8944 293.779 73.805 297.135 73.8 300.579V358.865C73.8031 362.44 74.9744 365.916 77.1357 368.764C79.2969 371.612 82.3296 373.676 85.772 374.642L131.79 387.499C135.792 400.783 141.138 413.542 147.731 425.678L125.788 469.401C124.244 472.484 123.71 475.975 124.264 479.379C124.817 482.782 126.43 485.924 128.871 488.359L170.068 529.556C172.6 532.088 175.891 533.721 179.439 534.207C182.987 534.692 186.596 534.004 189.715 532.246L231.371 508.826C243.507 515.354 256.299 520.634 269.616 524.57L285.032 570.95C286.114 574.22 288.198 577.067 290.988 579.086C293.779 581.106 297.135 582.195 300.579 582.2H358.865C362.44 582.197 365.916 581.026 368.764 578.864C371.613 576.703 373.676 573.67 374.642 570.228L387.499 524.21C400.734 520.206 413.526 514.864 425.678 508.269L469.401 530.212C472.481 531.76 475.97 532.299 479.373 531.752C482.776 531.204 485.921 529.598 488.359 527.162L529.556 485.932C532.088 483.4 533.721 480.109 534.207 476.561C534.692 473.013 534.004 469.404 532.246 466.285L508.826 424.629C515.354 412.493 520.634 399.701 524.57 386.384L570.95 370.968C574.22 369.886 577.067 367.802 579.086 365.012C581.106 362.221 582.195 358.865 582.2 355.421V297.168C582.197 293.593 581.026 290.116 578.864 287.268C576.703 284.42 573.671 282.357 570.228 281.391L524.21 268.534C520.206 255.299 514.865 242.507 508.269 230.354L530.212 186.632C531.761 183.552 532.299 180.063 531.752 176.66C531.204 173.256 529.598 170.112 527.162 167.674L485.932 126.477C483.4 123.945 480.109 122.312 476.561 121.826C473.013 121.34 469.404 121.996 466.285 123.754ZM432.698 180.302L471.533 158.424L495.575 182.466L475.01 223.466C473.772 225.94 473.18 228.687 473.289 231.451C473.398 234.215 474.204 236.907 475.633 239.276C484.325 253.708 490.852 269.386 494.985 285.786C495.687 288.592 497.119 291.162 499.135 293.236C501.151 295.31 503.68 296.813 506.465 297.594L549.4 309.599V343.613L505.874 358.045C503.247 358.915 500.883 360.436 499.002 362.466C497.121 364.497 495.784 366.97 495.116 369.656C491.053 386.043 484.587 401.738 475.928 416.232C474.441 418.713 473.637 421.542 473.597 424.434C473.556 427.326 474.282 430.177 475.698 432.698L497.576 471.533L473.534 495.575L432.534 475.01C430.06 473.772 427.313 473.18 424.549 473.289C421.785 473.398 419.093 474.204 416.724 475.633C402.292 484.325 386.614 490.852 370.214 494.985C367.408 495.687 364.838 497.119 362.764 499.135C360.69 501.151 359.187 503.68 358.406 506.465L346.401 549.4H312.42L297.988 505.874C297.115 503.243 295.589 500.876 293.552 498.995C291.516 497.113 289.036 495.779 286.344 495.116C269.957 491.053 254.262 484.587 239.768 475.928C237.287 474.441 234.458 473.637 231.566 473.597C228.674 473.556 225.824 474.281 223.302 475.698L184.467 497.576L160.425 473.534L180.99 432.534C182.228 430.06 182.82 427.313 182.711 424.549C182.602 421.784 181.796 419.093 180.367 416.724C171.657 402.26 165.136 386.587 161.015 370.214C160.313 367.408 158.881 364.838 156.865 362.764C154.849 360.69 152.32 359.187 149.535 358.406L106.6 346.401V312.42L150.126 297.988C152.751 297.11 155.111 295.582 156.986 293.546C158.862 291.51 160.191 289.032 160.851 286.344C164.951 269.944 171.446 254.233 180.072 239.768C181.559 237.287 182.363 234.458 182.403 231.566C182.444 228.674 181.719 225.823 180.302 223.302L158.424 184.467L182.466 160.425L223.466 180.99C225.94 182.228 228.687 182.82 231.451 182.711C234.216 182.602 236.907 181.796 239.276 180.367C253.708 171.675 269.386 165.148 285.786 161.015C288.592 160.313 291.162 158.881 293.236 156.865C295.31 154.849 296.813 152.32 297.594 149.535L309.599 106.6H343.613L358.045 150.126C358.92 152.747 360.443 155.104 362.473 156.98C364.503 158.855 366.974 160.186 369.656 160.851C386.056 164.951 401.767 171.446 416.232 180.072C418.713 181.559 421.542 182.363 424.434 182.403C427.326 182.444 430.177 181.718 432.698 180.302Z"/>
</mask>
<path fill-rule="evenodd" clip-rule="evenodd" d="M466.285 123.754L424.629 147.174C412.447 140.642 399.633 135.367 386.384 131.43L370.968 85.0504C369.886 81.7799 367.802 78.9331 365.012 76.9137C362.221 74.8943 358.866 73.8049 355.421 73.8H297.168C293.593 73.8031 290.117 74.9744 287.268 77.1356C284.42 79.2968 282.357 82.3295 281.391 85.772L268.534 131.79C255.299 135.795 242.507 141.136 230.354 147.731L186.632 125.788C183.549 124.244 180.058 123.71 176.654 124.264C173.251 124.817 170.108 126.429 167.674 128.871L126.444 170.068C123.912 172.6 122.279 175.891 121.793 179.439C121.308 182.987 121.996 186.596 123.754 189.715L147.174 231.371C140.646 243.507 135.366 256.299 131.43 269.616L85.0504 285.032C81.78 286.114 78.9332 288.198 76.9138 290.988C74.8944 293.779 73.805 297.135 73.8 300.579V358.865C73.8031 362.44 74.9744 365.916 77.1357 368.764C79.2969 371.612 82.3296 373.676 85.772 374.642L131.79 387.499C135.792 400.783 141.138 413.542 147.731 425.678L125.788 469.401C124.244 472.484 123.71 475.975 124.264 479.379C124.817 482.782 126.43 485.924 128.871 488.359L170.068 529.556C172.6 532.088 175.891 533.721 179.439 534.207C182.987 534.692 186.596 534.004 189.715 532.246L231.371 508.826C243.507 515.354 256.299 520.634 269.616 524.57L285.032 570.95C286.114 574.22 288.198 577.067 290.988 579.086C293.779 581.106 297.135 582.195 300.579 582.2H358.865C362.44 582.197 365.916 581.026 368.764 578.864C371.613 576.703 373.676 573.67 374.642 570.228L387.499 524.21C400.734 520.206 413.526 514.864 425.678 508.269L469.401 530.212C472.481 531.76 475.97 532.299 479.373 531.752C482.776 531.204 485.921 529.598 488.359 527.162L529.556 485.932C532.088 483.4 533.721 480.109 534.207 476.561C534.692 473.013 534.004 469.404 532.246 466.285L508.826 424.629C515.354 412.493 520.634 399.701 524.57 386.384L570.95 370.968C574.22 369.886 577.067 367.802 579.086 365.012C581.106 362.221 582.195 358.865 582.2 355.421V297.168C582.197 293.593 581.026 290.116 578.864 287.268C576.703 284.42 573.671 282.357 570.228 281.391L524.21 268.534C520.206 255.299 514.865 242.507 508.269 230.354L530.212 186.632C531.761 183.552 532.299 180.063 531.752 176.66C531.204 173.256 529.598 170.112 527.162 167.674L485.932 126.477C483.4 123.945 480.109 122.312 476.561 121.826C473.013 121.34 469.404 121.996 466.285 123.754ZM432.698 180.302L471.533 158.424L495.575 182.466L475.01 223.466C473.772 225.94 473.18 228.687 473.289 231.451C473.398 234.215 474.204 236.907 475.633 239.276C484.325 253.708 490.852 269.386 494.985 285.786C495.687 288.592 497.119 291.162 499.135 293.236C501.151 295.31 503.68 296.813 506.465 297.594L549.4 309.599V343.613L505.874 358.045C503.247 358.915 500.883 360.436 499.002 362.466C497.121 364.497 495.784 366.97 495.116 369.656C491.053 386.043 484.587 401.738 475.928 416.232C474.441 418.713 473.637 421.542 473.597 424.434C473.556 427.326 474.282 430.177 475.698 432.698L497.576 471.533L473.534 495.575L432.534 475.01C430.06 473.772 427.313 473.18 424.549 473.289C421.785 473.398 419.093 474.204 416.724 475.633C402.292 484.325 386.614 490.852 370.214 494.985C367.408 495.687 364.838 497.119 362.764 499.135C360.69 501.151 359.187 503.68 358.406 506.465L346.401 549.4H312.42L297.988 505.874C297.115 503.243 295.589 500.876 293.552 498.995C291.516 497.113 289.036 495.779 286.344 495.116C269.957 491.053 254.262 484.587 239.768 475.928C237.287 474.441 234.458 473.637 231.566 473.597C228.674 473.556 225.824 474.281 223.302 475.698L184.467 497.576L160.425 473.534L180.99 432.534C182.228 430.06 182.82 427.313 182.711 424.549C182.602 421.784 181.796 419.093 180.367 416.724C171.657 402.26 165.136 386.587 161.015 370.214C160.313 367.408 158.881 364.838 156.865 362.764C154.849 360.69 152.32 359.187 149.535 358.406L106.6 346.401V312.42L150.126 297.988C152.751 297.11 155.111 295.582 156.986 293.546C158.862 291.51 160.191 289.032 160.851 286.344C164.951 269.944 171.446 254.233 180.072 239.768C181.559 237.287 182.363 234.458 182.403 231.566C182.444 228.674 181.719 225.823 180.302 223.302L158.424 184.467L182.466 160.425L223.466 180.99C225.94 182.228 228.687 182.82 231.451 182.711C234.216 182.602 236.907 181.796 239.276 180.367C253.708 171.675 269.386 165.148 285.786 161.015C288.592 160.313 291.162 158.881 293.236 156.865C295.31 154.849 296.813 152.32 297.594 149.535L309.599 106.6H343.613L358.045 150.126C358.92 152.747 360.443 155.104 362.473 156.98C364.503 158.855 366.974 160.186 369.656 160.851C386.056 164.951 401.767 171.446 416.232 180.072C418.713 181.559 421.542 182.363 424.434 182.403C427.326 182.444 430.177 181.718 432.698 180.302Z" fill="#673BB7" stroke="white" stroke-width="20" mask="url(#path-1-inside-1_101_194)"/>
<circle cx="328" cy="340" r="128.5" stroke="#673BB7" stroke-width="11"/>
<rect x="348" y="381" width="14" height="14" fill="#673BB7"/>
<rect x="376" y="381" width="14" height="14" fill="#673BB7"/>
<rect x="404" y="381" width="14" height="14" fill="#673BB7"/>
<rect x="292" y="381" width="14" height="14" fill="#673BB7"/>
<rect x="262" y="381" width="14" height="14" fill="#673BB7"/>
<rect x="234" y="381" width="14" height="14" fill="#673BB7"/>
<path d="M325.5 432V338M325.5 338C331.833 328.333 347.8 308.1 361 304.5C374.2 300.9 400.167 300.667 411.5 301C409.5 314.333 402.5 342.3 390.5 347.5C375.5 354 343 371.5 325.5 338Z" stroke="#673BB7" stroke-width="11"/>
<path d="M283 303.5C299.4 307.1 316.167 329.667 322.5 340.5V361.5C307.833 360.5 276 357.1 266 351.5C256 345.9 243.5 317.167 238.5 303.5C246.5 302 266.6 299.9 283 303.5Z" stroke="#673BB7" stroke-width="11"/>
<rect x="16" y="484" width="619" height="67" fill="white"/>
<path d="M124.955 541.715C119.088 541.715 114.505 540.138 111.205 536.985C107.905 533.832 106.255 529.377 106.255 523.62C106.255 519.697 107.025 516.232 108.565 513.225C110.142 510.218 112.36 507.908 115.22 506.295C118.08 504.645 121.38 503.82 125.12 503.82C128.163 503.82 131.097 504.37 133.92 505.47L132.435 512.565C129.942 511.428 127.522 510.86 125.175 510.86C121.838 510.86 119.198 511.96 117.255 514.16C115.312 516.323 114.34 519.22 114.34 522.85C114.34 526.553 115.367 529.432 117.42 531.485C119.473 533.538 122.315 534.565 125.945 534.565C128.328 534.565 130.638 534.18 132.875 533.41L134.085 540.175C131.408 541.202 128.365 541.715 124.955 541.715ZM149.306 504.37H157.281V534.07H170.481V541H149.306V504.37ZM184.801 504.37H207.076V511.3H192.666V518.615H204.601V525.325H192.666V534.07H207.076V541H184.801V504.37ZM232.721 504.37H242.291L255.876 541H247.626L244.656 532.64H230.246L227.441 541H219.301L232.721 504.37ZM242.291 525.82L237.341 511.795L232.556 525.82H242.291ZM268.675 504.37C269.775 504.333 271.828 504.315 274.835 504.315C277.878 504.315 279.95 504.333 281.05 504.37C285.23 504.517 288.346 505.543 290.4 507.45C292.453 509.32 293.48 511.85 293.48 515.04C293.48 517.753 292.783 520.063 291.39 521.97C290.033 523.84 288.126 525.068 285.67 525.655C286.44 526.278 287.228 527.14 288.035 528.24C288.841 529.303 289.96 530.972 291.39 533.245C292.893 535.628 294.415 538.213 295.955 541H286.715L280.5 529.45C279.84 528.24 279.235 527.488 278.685 527.195C278.171 526.865 277.383 526.7 276.32 526.7V541H268.675V504.37ZM279.73 520.595C281.6 520.595 283.066 520.118 284.13 519.165C285.23 518.212 285.78 516.928 285.78 515.315C285.78 513.848 285.303 512.73 284.35 511.96C283.396 511.19 282.003 510.805 280.17 510.805H276.32V520.595H279.73ZM323.585 504.37H332.385L341.075 532.31L349.71 504.37H357.905L345.585 541H335.96L323.585 504.37ZM371.521 504.37H379.496V541H371.521V504.37ZM406.104 541.715C403.977 541.715 401.942 541.477 399.999 541C398.092 540.523 396.442 539.882 395.049 539.075L395.709 531.705C397.359 532.732 399.082 533.538 400.879 534.125C402.712 534.675 404.399 534.95 405.939 534.95C407.699 534.95 409.129 534.583 410.229 533.85C411.329 533.117 411.879 532.145 411.879 530.935C411.879 529.945 411.512 529.193 410.779 528.68C410.045 528.13 408.89 527.543 407.314 526.92L405.994 526.37C405.81 526.297 405.609 526.223 405.389 526.15C405.169 526.04 404.912 525.93 404.619 525.82C402.565 524.977 400.915 524.188 399.669 523.455C398.422 522.685 397.34 521.622 396.424 520.265C395.544 518.908 395.104 517.148 395.104 514.985C395.104 511.465 396.295 508.697 398.679 506.68C401.062 504.663 404.38 503.655 408.634 503.655C411.86 503.655 415.16 504.315 418.534 505.635L417.324 512.895C415.967 512.125 414.5 511.52 412.924 511.08C411.384 510.64 409.917 510.42 408.524 510.42C406.8 510.42 405.462 510.768 404.509 511.465C403.555 512.125 403.079 513.023 403.079 514.16C403.079 515.15 403.409 515.92 404.069 516.47C404.729 517.02 405.792 517.607 407.259 518.23L409.514 519.11C411.64 519.917 413.4 520.705 414.794 521.475C416.187 522.245 417.379 523.363 418.369 524.83C419.359 526.26 419.854 528.13 419.854 530.44C419.854 533.997 418.644 536.765 416.224 538.745C413.804 540.725 410.43 541.715 406.104 541.715ZM435.42 504.37H443.395V541H435.42V504.37ZM476.878 541.715C473.284 541.715 470.113 540.927 467.363 539.35C464.613 537.773 462.468 535.555 460.928 532.695C459.424 529.835 458.673 526.553 458.673 522.85C458.673 519.11 459.424 515.81 460.928 512.95C462.431 510.09 464.558 507.872 467.308 506.295C470.058 504.718 473.248 503.93 476.878 503.93C480.471 503.93 483.643 504.718 486.393 506.295C489.143 507.835 491.269 510.017 492.773 512.84C494.276 515.663 495.028 518.927 495.028 522.63C495.028 526.407 494.276 529.743 492.773 532.64C491.269 535.5 489.143 537.737 486.393 539.35C483.643 540.927 480.471 541.715 476.878 541.715ZM476.878 534.73C479.884 534.73 482.286 533.648 484.083 531.485C485.916 529.322 486.833 526.443 486.833 522.85C486.833 520.503 486.411 518.432 485.568 516.635C484.761 514.802 483.588 513.408 482.048 512.455C480.544 511.465 478.821 510.97 476.878 510.97C474.934 510.97 473.193 511.465 471.653 512.455C470.149 513.408 468.976 514.802 468.133 516.635C467.326 518.432 466.923 520.503 466.923 522.85C466.923 525.197 467.326 527.268 468.133 529.065C468.976 530.862 470.149 532.255 471.653 533.245C473.156 534.235 474.898 534.73 476.878 534.73ZM509.889 504.37H519.239L534.419 530.055V504.37H541.734V541H532.494L517.204 515.15V541H509.889V504.37Z" fill="#673BB7"/>
</svg>
