<svg width="199" height="59" viewBox="0 0 199 59" fill="none" xmlns="http://www.w3.org/2000/svg">
<path d="M187.715 37.2436C187.572 37.2436 187.501 37.1653 187.501 37.0087V23.4912C187.501 23.3346 187.572 23.2563 187.715 23.2563H190.363C190.491 23.2563 190.576 23.3061 190.619 23.4057L194.463 31.2002C194.733 31.7127 194.968 32.1825 195.168 32.6096C195.381 33.0367 195.566 33.4425 195.723 33.8269C195.894 34.2112 196.05 34.5743 196.193 34.916H196.235C196.235 34.6312 196.228 34.3251 196.214 33.9977C196.214 33.6703 196.207 33.3428 196.193 33.0154C196.193 32.6879 196.193 32.3605 196.193 32.0331C196.193 31.7056 196.193 31.3995 196.193 31.1148V23.4912C196.193 23.3346 196.264 23.2563 196.406 23.2563H197.965C198.122 23.2563 198.2 23.3346 198.2 23.4912V37.0087C198.2 37.1653 198.122 37.2436 197.965 37.2436H195.381C195.253 37.2436 195.16 37.1938 195.104 37.0941L191.345 29.5132C191.117 29.0576 190.897 28.6092 190.683 28.1679C190.484 27.7265 190.284 27.2923 190.085 26.8652C189.886 26.4381 189.694 26.011 189.509 25.5839H189.466C189.466 25.9541 189.466 26.31 189.466 26.6517C189.48 26.9791 189.487 27.3137 189.487 27.6553C189.501 27.9828 189.509 28.3173 189.509 28.659C189.509 28.9864 189.509 29.3281 189.509 29.684V37.0087C189.509 37.1653 189.43 37.2436 189.274 37.2436H187.715Z" fill="white"/>
<path d="M178.222 37.4999C176.414 37.4999 175.061 37.0585 174.165 36.1759C173.282 35.2932 172.841 34.0404 172.841 32.4174V28.0824C172.841 26.4452 173.282 25.1924 174.165 24.324C175.061 23.4413 176.414 23 178.222 23C180.03 23 181.382 23.4413 182.279 24.324C183.176 25.1924 183.625 26.4452 183.625 28.0824V32.4174C183.625 34.0404 183.176 35.2932 182.279 36.1759C181.382 37.0585 180.03 37.4999 178.222 37.4999ZM178.222 35.7061C179.332 35.7061 180.172 35.4214 180.742 34.8519C181.311 34.2824 181.596 33.4496 181.596 32.3534V28.1465C181.596 27.036 181.311 26.2032 180.742 25.648C180.172 25.0785 179.332 24.7938 178.222 24.7938C177.14 24.7938 176.307 25.0785 175.723 25.648C175.154 26.2032 174.869 27.036 174.869 28.1465V32.3534C174.869 33.4496 175.154 34.2824 175.723 34.8519C176.307 35.4214 177.14 35.7061 178.222 35.7061Z" fill="white"/>
<path d="M167.143 37.2436C167.001 37.2436 166.93 37.1653 166.93 37.0087V23.4912C166.93 23.3346 167.001 23.2563 167.143 23.2563H168.745C168.887 23.2563 168.958 23.3346 168.958 23.4912V37.0087C168.958 37.1653 168.887 37.2436 168.745 37.2436H167.143Z" fill="white"/>
<path d="M158.317 37.4999C157.164 37.4999 156.21 37.3362 155.455 37.0087C154.715 36.6671 154.174 36.1972 153.832 35.5993C153.505 34.9871 153.37 34.2753 153.426 33.4638C153.441 33.2218 153.533 33.1008 153.704 33.1008H155.242C155.412 33.1008 155.498 33.2076 155.498 33.4211C155.498 34.2468 155.74 34.8377 156.224 35.1936C156.722 35.5495 157.47 35.7274 158.466 35.7274C159.434 35.7274 160.16 35.5637 160.644 35.2363C161.143 34.8946 161.392 34.375 161.392 33.6774C161.392 33.3357 161.335 33.0439 161.221 32.8018C161.107 32.5598 160.915 32.3463 160.644 32.1612C160.374 31.9619 160.004 31.7697 159.534 31.5846L156.416 30.282C155.747 29.9972 155.206 29.684 154.793 29.3424C154.395 29.0007 154.103 28.6092 153.918 28.1679C153.747 27.7265 153.661 27.2282 153.661 26.673C153.676 25.4772 154.074 24.5731 154.857 23.961C155.64 23.3346 156.786 23.0214 158.295 23.0214C159.335 23.0214 160.232 23.1708 160.986 23.4698C161.741 23.7688 162.31 24.2101 162.694 24.7938C163.079 25.3633 163.228 26.0751 163.143 26.9293C163.114 27.1855 163.036 27.3137 162.908 27.3137H161.349C161.264 27.3137 161.2 27.2852 161.157 27.2282C161.128 27.1713 161.121 27.0716 161.136 26.9293C161.192 26.2459 160.958 25.7192 160.431 25.349C159.918 24.9646 159.192 24.7725 158.253 24.7725C157.413 24.7725 156.779 24.9219 156.352 25.2209C155.925 25.5199 155.704 25.9754 155.69 26.5876C155.69 26.9008 155.747 27.1784 155.861 27.4204C155.989 27.6625 156.188 27.8831 156.459 28.0824C156.744 28.2818 157.128 28.4882 157.612 28.7017L160.708 30.0044C161.363 30.2749 161.89 30.5809 162.289 30.9226C162.702 31.2501 162.993 31.6344 163.164 32.0758C163.349 32.5171 163.435 33.0439 163.421 33.656C163.421 34.8661 163.008 35.8129 162.182 36.4962C161.37 37.1653 160.082 37.4999 158.317 37.4999Z" fill="white"/>
<path d="M148.178 37.2436C148.035 37.2436 147.964 37.1653 147.964 37.0087V23.4912C147.964 23.3346 148.035 23.2563 148.178 23.2563H149.779C149.922 23.2563 149.993 23.3346 149.993 23.4912V37.0087C149.993 37.1653 149.922 37.2436 149.779 37.2436H148.178Z" fill="white"/>
<path d="M138.081 37.2436C137.953 37.2436 137.867 37.1867 137.824 37.0728L133.276 23.5125C133.233 23.3417 133.29 23.2563 133.447 23.2563H135.177C135.319 23.2563 135.411 23.3132 135.454 23.4271L138.273 32.332C138.43 32.8161 138.586 33.3143 138.743 33.8269C138.899 34.3251 139.049 34.8234 139.191 35.3217H139.234C139.376 34.8377 139.526 34.3536 139.682 33.8696C139.853 33.3713 140.017 32.873 140.174 32.3747L143.099 23.4484C143.142 23.3203 143.234 23.2563 143.377 23.2563H145.064C145.235 23.2563 145.299 23.3417 145.256 23.5125L140.622 37.0728C140.579 37.1867 140.487 37.2436 140.344 37.2436H138.081Z" fill="white"/>
<path d="M116.226 37.2436C116.083 37.2436 116.012 37.1653 116.012 37.0087V23.4912C116.012 23.3346 116.083 23.2563 116.226 23.2563H120.454C122.191 23.2563 123.472 23.5908 124.298 24.2599C125.123 24.9148 125.536 25.89 125.536 27.1855C125.536 28.1963 125.294 29.0434 124.81 29.7267C124.34 30.3959 123.657 30.8585 122.76 31.1148V31.1575L126.284 36.966C126.341 37.0514 126.348 37.1226 126.305 37.1796C126.276 37.2223 126.22 37.2436 126.134 37.2436H124.276C124.148 37.2436 124.056 37.1938 123.999 37.0941L120.603 31.3924H118.041V37.0087C118.041 37.1653 117.969 37.2436 117.827 37.2436H116.226ZM118.041 29.7695H120.283C121.422 29.7695 122.24 29.5773 122.739 29.1929C123.251 28.7943 123.507 28.1678 123.507 27.3137C123.507 26.4737 123.273 25.8758 122.803 25.5199C122.333 25.1639 121.536 24.986 120.411 24.986H118.041V29.7695Z" fill="white"/>
<path d="M101.675 37.2436C101.505 37.2436 101.441 37.1582 101.483 36.9874L106.181 23.4271C106.224 23.3132 106.309 23.2563 106.438 23.2563H108.594C108.737 23.2563 108.829 23.3132 108.872 23.4271L113.613 36.9874C113.641 37.0728 113.634 37.1368 113.591 37.1796C113.563 37.2223 113.506 37.2436 113.421 37.2436H111.691C111.548 37.2436 111.456 37.1867 111.413 37.0728L108.36 27.698C108.217 27.271 108.075 26.8367 107.932 26.3954C107.79 25.9541 107.641 25.5127 107.484 25.0714H107.463C107.334 25.4985 107.199 25.9327 107.057 26.3741C106.914 26.8011 106.772 27.2282 106.63 27.6553L103.597 37.0514C103.555 37.1796 103.469 37.2436 103.341 37.2436H101.675ZM104.217 34.0831L104.665 32.332H110.303L110.773 34.0831H104.217Z" fill="white"/>
<path d="M91.5458 37.2436C91.4035 37.2436 91.3323 37.1653 91.3323 37.0087V23.4912C91.3323 23.3346 91.4035 23.2563 91.5458 23.2563H99.319C99.4613 23.2563 99.5325 23.3346 99.5325 23.4912V24.8579C99.5325 25.0145 99.4613 25.0928 99.319 25.0928H93.361V29.2569H98.8064C98.9488 29.2569 99.02 29.3352 99.02 29.4918V30.7945C99.02 30.9511 98.9488 31.0294 98.8064 31.0294H93.361V35.4071H99.319C99.4613 35.4071 99.5325 35.4854 99.5325 35.642V37.0087C99.5325 37.1653 99.4613 37.2436 99.319 37.2436H91.5458Z" fill="white"/>
<path d="M80.6864 37.2436C80.5441 37.2436 80.4729 37.1653 80.4729 37.0087V23.4912C80.4729 23.3346 80.5441 23.2563 80.6864 23.2563H82.2881C82.4304 23.2563 82.5016 23.3346 82.5016 23.4912V35.4071H88.3101C88.4667 35.4071 88.545 35.4854 88.545 35.642V37.0087C88.545 37.1653 88.4667 37.2436 88.3101 37.2436H80.6864Z" fill="white"/>
<path d="M71.36 37.4999C69.609 37.4999 68.2778 37.0657 67.3667 36.1972C66.4556 35.3146 66 34.0475 66 32.3961V28.1038C66 26.4524 66.4556 25.1924 67.3667 24.324C68.2921 23.4413 69.6303 23 71.3814 23C72.5203 23 73.5098 23.1922 74.3497 23.5766C75.2039 23.961 75.8374 24.5091 76.2503 25.2209C76.6774 25.9327 76.8197 26.7869 76.6774 27.7835C76.6631 27.8546 76.6418 27.9258 76.6133 27.997C76.5848 28.054 76.5279 28.0824 76.4425 28.0824H74.8409C74.6843 28.0824 74.6131 28.0041 74.6273 27.8475C74.67 26.8794 74.4138 26.132 73.8586 25.6053C73.3176 25.0643 72.499 24.7938 71.4028 24.7938C70.3208 24.7938 69.4879 25.0785 68.9042 25.648C68.3206 26.2032 68.0287 27.0218 68.0287 28.1038V32.3961C68.0287 33.4781 68.3206 34.3038 68.9042 34.8732C69.4879 35.4285 70.3208 35.7061 71.4028 35.7061C72.499 35.7061 73.3389 35.4356 73.9226 34.8946C74.5063 34.3536 74.7412 33.6062 74.6273 32.6524C74.6131 32.4957 74.6843 32.4174 74.8409 32.4174H76.4211C76.5635 32.4174 76.6489 32.5171 76.6774 32.7164C76.7628 33.6845 76.592 34.5245 76.1649 35.2363C75.752 35.9481 75.1327 36.5033 74.307 36.9019C73.4813 37.3006 72.499 37.4999 71.36 37.4999Z" fill="white"/>
<g clip-path="url(#clip0_101_188)">
<path fill-rule="evenodd" clip-rule="evenodd" d="M41.9371 11.1304L38.1906 13.2367C37.0951 12.6492 35.9426 12.1748 34.7509 11.8207L33.3645 7.64936C33.2672 7.35522 33.0797 7.09918 32.8288 6.91756C32.5778 6.73593 32.276 6.63795 31.9662 6.63751H26.727C26.4054 6.63779 26.0927 6.74314 25.8366 6.93751C25.5804 7.13189 25.3948 7.40465 25.308 7.71426L24.1516 11.8531C22.9613 12.2133 21.8108 12.6937 20.7178 13.2868L16.7855 11.3133C16.5082 11.1744 16.1942 11.1264 15.8881 11.1762C15.582 11.226 15.2993 11.371 15.0804 11.5906L11.3722 15.2958C11.1445 15.5235 10.9976 15.8195 10.9539 16.1386C10.9102 16.4577 10.9722 16.7823 11.1303 17.0628L13.2366 20.8093C12.6496 21.9008 12.1746 23.0513 11.8206 24.249L7.6493 25.6355C7.35516 25.7328 7.09912 25.9202 6.9175 26.1712C6.73587 26.4222 6.63789 26.724 6.63745 27.0338V32.276C6.63773 32.5975 6.74308 32.9102 6.93745 33.1663C7.13183 33.4225 7.40459 33.6081 7.7142 33.6949L11.8531 34.8513C12.213 36.0461 12.6938 37.1936 13.2868 38.2851L11.3132 42.2175C11.1743 42.4947 11.1263 42.8087 11.1761 43.1149C11.2259 43.421 11.3709 43.7036 11.5905 43.9226L15.2957 47.6278C15.5234 47.8555 15.8195 48.0024 16.1385 48.046C16.4576 48.0897 16.7822 48.0278 17.0628 47.8697L20.8092 45.7634C21.9007 46.3504 23.0513 46.8254 24.249 47.1794L25.6354 51.3507C25.7327 51.6448 25.9202 51.9008 26.1711 52.0825C26.4221 52.2641 26.7239 52.3621 27.0337 52.3625H32.2759C32.5975 52.3622 32.9101 52.2569 33.1663 52.0625C33.4224 51.8681 33.608 51.5954 33.6948 51.2858L34.8512 47.1469C36.0415 46.7868 37.1921 46.3064 38.285 45.7132L42.2174 47.6868C42.4944 47.826 42.8082 47.8745 43.1143 47.8252C43.4204 47.776 43.7032 47.6315 43.9225 47.4124L47.6277 43.7043C47.8554 43.4765 48.0023 43.1805 48.046 42.8614C48.0897 42.5424 48.0277 42.2178 47.8696 41.9372L45.7633 38.1907C46.3503 37.0992 46.8253 35.9487 47.1793 34.751L51.3506 33.3645C51.6447 33.2672 51.9008 33.0798 52.0824 32.8288C52.264 32.5778 52.362 32.276 52.3624 31.9662V26.727C52.3622 26.4055 52.2568 26.0928 52.0624 25.8366C51.8681 25.5805 51.5953 25.3949 51.2857 25.3081L47.1468 24.1517C46.7868 22.9614 46.3064 21.8108 45.7131 20.7179L47.6867 16.7855C47.826 16.5085 47.8744 16.1947 47.8252 15.8886C47.7759 15.5825 47.6315 15.2997 47.4124 15.0804L43.7042 11.3752C43.4765 11.1475 43.1804 11.0006 42.8614 10.9569C42.5423 10.9133 42.2177 10.9722 41.9371 11.1304ZM38.9164 16.2162L42.4092 14.2485L44.5715 16.4109L42.7218 20.0984C42.6105 20.3209 42.5573 20.5679 42.5671 20.8165C42.5769 21.0651 42.6494 21.3072 42.7779 21.5203C43.5596 22.8183 44.1467 24.2284 44.5184 25.7034C44.5816 25.9557 44.7103 26.1868 44.8917 26.3734C45.073 26.5599 45.3004 26.6951 45.5509 26.7654L49.4124 27.8451V30.9042L45.4978 32.2022C45.2615 32.2805 45.0488 32.4173 44.8797 32.5999C44.7105 32.7825 44.5903 33.0049 44.5302 33.2465C44.1648 34.7203 43.5832 36.132 42.8044 37.4355C42.6707 37.6586 42.5984 37.9131 42.5948 38.1732C42.5912 38.4333 42.6564 38.6897 42.7838 38.9164L44.7514 42.4092L42.5891 44.5716L38.9016 42.7219C38.6791 42.6106 38.4321 42.5573 38.1834 42.5671C37.9348 42.5769 37.6927 42.6495 37.4797 42.778C36.1817 43.5597 34.7716 44.1468 33.2966 44.5185C33.0443 44.5816 32.8131 44.7104 32.6266 44.8917C32.4401 45.0731 32.3049 45.3005 32.2346 45.551L31.1549 49.4125H28.0987L26.8007 45.4979C26.7222 45.2612 26.5849 45.0483 26.4018 44.8791C26.2186 44.7099 25.9956 44.5899 25.7534 44.5303C24.2796 44.1648 22.868 43.5833 21.5645 42.8045C21.3413 42.6708 21.0869 42.5985 20.8268 42.5948C20.5667 42.5912 20.3103 42.6564 20.0836 42.7839L16.5908 44.7515L14.4284 42.5892L16.2781 38.9017C16.3894 38.6792 16.4426 38.4321 16.4328 38.1835C16.423 37.9349 16.3505 37.6928 16.222 37.4798C15.4386 36.1789 14.8521 34.7693 14.4815 33.2967C14.4183 33.0443 14.2896 32.8132 14.1082 32.6267C13.9269 32.4402 13.6995 32.3049 13.449 32.2347L9.58745 31.155V28.0988L13.5021 26.8008C13.7382 26.7218 13.9505 26.5844 14.1192 26.4012C14.2878 26.2181 14.4074 25.9953 14.4668 25.7535C14.8355 24.2785 15.4196 22.8655 16.1954 21.5645C16.3292 21.3414 16.4015 21.0869 16.4051 20.8268C16.4087 20.5668 16.3435 20.3104 16.2161 20.0836L14.2485 16.5908L16.4108 14.4285L20.0983 16.2781C20.3208 16.3894 20.5678 16.4427 20.8165 16.4329C21.0651 16.4231 21.3072 16.3506 21.5202 16.2221C22.8182 15.4403 24.2283 14.8533 25.7033 14.4816C25.9556 14.4184 26.1868 14.2896 26.3733 14.1083C26.5598 13.927 26.695 13.6995 26.7653 13.4491L27.845 9.58751H30.9041L32.2022 13.5022C32.2808 13.7379 32.4178 13.95 32.6004 14.1186C32.783 14.2872 33.0052 14.407 33.2465 14.4668C34.7215 14.8356 36.1345 15.4197 37.4354 16.1955C37.6586 16.3292 37.913 16.4016 38.1731 16.4052C38.4332 16.4088 38.6896 16.3436 38.9164 16.2162Z" fill="white"/>
<circle cx="29.4998" cy="30.5793" r="11.0518" stroke="white" stroke-width="2"/>
<rect x="32" y="35" width="2" height="2" fill="white"/>
<rect x="35" y="35" width="2" height="2" fill="white"/>
<rect x="25" y="35" width="2" height="2" fill="white"/>
<rect x="22" y="35" width="2" height="2" fill="white"/>
<path d="M29.2751 38.8537V30.3994M29.2751 30.3994C29.8448 29.53 31.2808 27.7102 32.468 27.3864C33.6552 27.0627 35.9906 27.0417 37.0099 27.0717C36.83 28.2708 36.2005 30.7861 35.1212 31.2538C33.7721 31.8384 30.8491 33.4124 29.2751 30.3994Z" stroke="white" stroke-width="2"/>
<path d="M25.4527 27.2965C26.9277 27.6203 28.4357 29.6499 29.0053 30.6242V32.5129C27.6862 32.423 24.8232 32.1172 23.9238 31.6136C23.0244 31.1099 21.9001 28.5256 21.4504 27.2965C22.17 27.1616 23.9777 26.9727 25.4527 27.2965Z" stroke="white" stroke-width="2"/>
</g>
<defs>
<clipPath id="clip0_101_188">
<rect width="59" height="59" fill="white"/>
</clipPath>
</defs>
</svg>
